<?xml version="1.0" encoding="UTF-8"?>
<svg id="Layer_1" xmlns="http://www.w3.org/2000/svg" version="1.1" viewBox="0 0 1077 1076.99">
  <!-- Generator: Adobe Illustrator 30.6.0, SVG Export Plug-In . SVG Version: 2.1.4 Build 109)  -->
  <defs>
    <style>
      .st0 {
        fill: #c8a74c;
      }
    </style>
  </defs>
  <path class="st0" d="M747.26,1076.99h-417.53C147.92,1076.99,0,929.08,0,747.26v-417.53C0,147.91,147.92,0,329.73,0h417.53c181.82,0,329.74,147.91,329.74,329.73v417.53c0,181.81-147.91,329.73-329.74,329.73ZM329.73,80.64c-137.34,0-249.09,111.74-249.09,249.09v417.53c0,137.34,111.75,249.09,249.09,249.09h417.53c137.35,0,249.1-111.74,249.1-249.09v-417.53c0-137.34-111.75-249.09-249.1-249.09h-417.53Z"/>
  <path class="st0" d="M538.5,810.93c-150.22,0-272.42-122.21-272.42-272.43s122.21-272.43,272.42-272.43,272.43,122.21,272.43,272.43-122.22,272.43-272.43,272.43ZM538.5,348.64c-104.68,0-189.84,85.17-189.84,189.85s85.17,189.85,189.84,189.85,189.85-85.17,189.85-189.85-85.17-189.85-189.85-189.85Z"/>
  <path class="st0" d="M911.5,236.42c0,39.17-31.76,70.93-70.93,70.93s-70.93-31.76-70.93-70.93,31.76-70.93,70.93-70.93,70.93,31.76,70.93,70.93Z"/>
</svg>